Coordinates
version=1
nRows=21
nColumns=12
inDegrees=yes

Units are S.I. units (second, meters, Newtons, ...)
Angles are in degrees

endheader
time	SC_y	SC_z	SC_x	AC_y	AC_z	AC_x	GH_y	GH_z	GH_yy	EL_x	PS_y
       0.0              -11.99          19.62          14.82          60.04         -16.32        0.08859          78.28         -9.837         -33.31          133.9          134.1
   0.01423              -11.99          19.62          14.82          60.04         -16.31        0.08929          78.28         -9.838         -33.33          133.9          134.1
   0.02847              -11.99          19.62          14.83          60.04         -16.31        0.09003          78.29         -9.839         -33.34          133.9          134.1
    0.0427               -12.0          19.62          14.84          60.04         -16.31        0.09082          78.29          -9.84         -33.36          133.9          134.1
   0.05693               -12.0          19.61          14.84          60.04         -16.31        0.09165          78.29         -9.841         -33.38          133.9          134.1
   0.07117               -12.0          19.61          14.85          60.04         -16.31        0.09255          78.29         -9.842          -33.4          133.9          134.1
    0.0854               -12.0          19.61          14.86          60.05         -16.31         0.0935          78.29         -9.844         -33.42          133.9          134.1
   0.09964              -12.01          19.61          14.87          60.05         -16.31        0.09452          78.29         -9.845         -33.44          133.9          134.1
    0.1139              -12.01          19.61          14.87          60.05         -16.31        0.09561          78.29         -9.847         -33.47          133.9          134.1
    0.1281              -12.01           19.6          14.88          60.05         -16.31        0.09678          78.29         -9.849         -33.49          133.8          134.0
    0.1423              -12.02           19.6          14.89          60.06         -16.31        0.09804           78.3         -9.851         -33.52          133.8          134.0
    0.1566              -12.02           19.6          14.91          60.06         -16.31        0.09939           78.3         -9.853         -33.55          133.8          134.0
    0.1708              -12.02           19.6          14.92          60.06          -16.3         0.1009           78.3         -9.855         -33.58          133.8          134.0
     0.185              -12.03          19.59          14.93          60.06          -16.3         0.1024           78.3         -9.857         -33.62          133.8          134.0
    0.1993              -12.03          19.59          14.94          60.07          -16.3         0.1041           78.3          -9.86         -33.66          133.8          134.0
    0.2135              -12.04          19.58          14.96          60.07          -16.3          0.106          78.31         -9.862          -33.7          133.7          133.9
    0.2277              -12.04          19.58          14.97          60.07          -16.3          0.108          78.31         -9.865         -33.74          133.7          133.9
     0.242              -12.05          19.58          14.99          60.08          -16.3         0.1102          78.31         -9.869         -33.79          133.7          133.9
    0.2562              -12.05          19.57          15.01          60.08         -16.29         0.1126          78.31         -9.872         -33.85          133.7          133.8
    0.2704              -12.06          19.56          15.03          60.09         -16.29         0.1152          78.32         -9.876          -33.9          133.7          133.8
    0.2847              -12.07          19.56          15.06          60.09         -16.29         0.1181          78.32          -9.88         -33.97          133.6          133.8
